<svg version="1.1" xmlns="http://www.w3.org/2000/svg" viewBox="0 0 924.5 468.5" width="1849" height="937">
  <!-- svg-source:excalidraw -->
  
  <defs>
    <style>
      @font-face {
        font-family: "Virgil";
        src: url("https://excalidraw.com/Virgil.woff2");
      }
      @font-face {
        font-family: "Cascadia";
        src: url("https://excalidraw.com/Cascadia.woff2");
      }
    </style>
  </defs>
  <rect x="0" y="0" width="924.5" height="468.5" fill="#ffffff"></rect><g stroke-opacity="0.6" fill-opacity="0.6" stroke-linecap="round" transform="translate(315.5 77) rotate(0 35 35)"><path d="M-0.3 0.09 L70.23 0.32 L69.07 71.03 L1.71 68.24" stroke="none" stroke-width="0" fill="#ced4da"></path><path d="M-1.98 1.78 C20.96 1.91, 45.42 -1.68, 70.92 -1.66 M-0.3 1 C17.93 0.97, 35.11 1.5, 70.97 -0.78 M69.63 1.13 C69.49 15.91, 71.31 33.13, 70.05 68.6 M69.34 -0.27 C68.87 20.74, 69.66 40.49, 69.84 70.52 M68.03 69.4 C52.39 71.34, 36.03 67.72, -0.25 69.81 M70.51 69.53 C46.49 69.93, 23.16 69.22, 0.03 70.52 M1.8 68.68 C1.12 57.65, 0.27 42.15, -1.67 -1.64 M0.32 70.11 C-0.7 50.84, 0.22 30.15, 0.2 0.06" stroke="#000000" stroke-width="1" fill="none"></path></g><g stroke-opacity="0.6" fill-opacity="0.6" stroke-linecap="round" transform="translate(224.5 78) rotate(0 35 35)"><path d="M-1.64 -0.3 L70.18 -0.34 L70.63 70.22 L-1.27 71.58" stroke="none" stroke-width="0" fill="#ced4da"></path><path d="M-0.11 0.63 C20.93 0.21, 42.82 -1.74, 70.66 -0.62 M0.11 -0.99 C23.31 -0.25, 45.83 0.64, 69.2 0.46 M68.35 -0.6 C71.61 16.82, 70.39 32.13, 71.84 71.94 M70.48 -0.18 C70.04 14.98, 69.56 31.46, 70.83 70.02 M68.24 68.68 C53.36 68.25, 38.83 69.82, 0.04 69.68 M69.59 69.01 C45.03 70.54, 21.47 71.03, -1 69.87 M-1.4 71.03 C-1.2 49.99, 0.57 30.34, -0.59 0.07 M0.98 70.9 C0.04 45.72, 1.53 20.68, 0.1 -0.83" stroke="#000000" stroke-width="1" fill="none"></path></g><g stroke-opacity="0.6" fill-opacity="0.6" stroke-linecap="round" transform="translate(133.5 78) rotate(0 35 35)"><path d="M-1.55 -1.5 L71.93 0.95 L69.63 71.13 L-1.19 70.17" stroke="none" stroke-width="0" fill="#ced4da"></path><path d="M1.3 -0.75 C17.37 -1.29, 29.07 -0.02, 70.88 -0.92 M0.47 -0.81 C19.43 -0.84, 40.29 -0.3, 70.33 0.38 M70.68 -1.13 C69.48 16.97, 68.37 35.77, 68.56 71.17 M70.32 -0.62 C69.38 27.3, 69.51 55.65, 70.99 69.81 M69.21 71.09 C54.16 69.84, 36.28 69.72, -1.11 71.32 M69.94 70.32 C48.21 70.21, 26.89 69.24, 0.33 69.69 M0.22 68.02 C1.61 45.85, 1.82 25.21, -1.6 0.92 M-0.83 69.7 C1.39 55.63, 0.78 40.51, 0.92 0.97" stroke="#000000" stroke-width="1" fill="none"></path></g><g stroke-opacity="0.6" fill-opacity="0.6" stroke-linecap="round" transform="translate(402.5 78) rotate(0 35 35)"><path d="M0.91 -1.36 L71.43 -1.21 L70.32 68.14 L1.82 70.38" stroke="none" stroke-width="0" fill="#ced4da"></path><path d="M0.46 1.05 C14.67 -1.26, 31.14 -0.3, 70.91 -1.11 M0.1 -0.21 C26.71 0.32, 54.87 -0.08, 70.78 -0.09 M68.86 1.7 C70.52 23.98, 68.61 45.09, 70.89 68.33 M70.36 0.08 C69.6 17.65, 69.21 35.97, 70.94 69.18 M71.6 68.97 C52.38 68.83, 31.65 68.82, -0.42 70.5 M69.46 70.06 C47.35 70, 22.47 70.38, -0.34 70.26 M1.14 71.39 C1.14 42.61, 0.6 15.79, 1.59 0.21 M0.93 70.99 C0.28 50.63, -0.14 29.89, -0.27 -0.83" stroke="#000000" stroke-width="1" fill="none"></path></g><g transform="translate(161 98) rotate(0 6.5 12.5)"><text x="6.5" y="18" font-family="Virgil, Segoe UI Emoji" font-size="20px" fill="#000000" text-anchor="middle" style="white-space: pre;" direction="ltr">A</text></g><g transform="translate(248 98) rotate(0 7.5 12.5)"><text x="7.5" y="18" font-family="Virgil, Segoe UI Emoji" font-size="20px" fill="#000000" text-anchor="middle" style="white-space: pre;" direction="ltr">B</text></g><g transform="translate(343 98) rotate(0 6.5 12.5)"><text x="6.5" y="18" font-family="Virgil, Segoe UI Emoji" font-size="20px" fill="#000000" text-anchor="middle" style="white-space: pre;" direction="ltr">C</text></g><g transform="translate(428.5 98) rotate(0 8 12.5)"><text x="8" y="18" font-family="Virgil, Segoe UI Emoji" font-size="20px" fill="#000000" text-anchor="middle" style="white-space: pre;" direction="ltr">D</text></g><g stroke-linecap="round" transform="translate(133 164.5) rotate(0 35 35)"><path d="M-1.23 -0.16 C27.37 -2.1, 56.74 -1.81, 71.43 -1.21 M0.19 0.53 C21.43 -0.66, 43.44 -0.04, 69.37 0.08 M71.84 -0.26 C67.79 20.23, 71 36.91, 69.37 69.43 M70.42 0.49 C68.39 15.08, 68.65 30.49, 70.24 69.14 M69.27 71.51 C46.67 70.54, 28.66 70.89, -0.63 70.2 M70.53 70.52 C52.4 69.18, 32.48 69.02, 0.93 69.41 M0.81 69.97 C-1.41 56.3, 1.2 41.05, -1.01 1.15 M0.75 69.97 C-0.7 46.01, 0.34 19.92, -0.32 0.43" stroke="#000000" stroke-width="1" fill="none"></path></g><g stroke-linecap="round" transform="translate(221 164.5) rotate(0 35 35)"><path d="M-0.16 -0.54 C17.97 1.34, 37.88 1.86, 68.79 0.32 M0.53 -0.7 C14.47 -0.95, 29.58 -0.76, 70.08 -0.29 M69.74 -1.81 C71.87 18.39, 69.58 33.35, 69.43 68.29 M70.49 -0.99 C70.29 13.99, 70.7 29.67, 69.14 70.06 M71.51 68.08 C53.99 71.23, 37.47 69.11, 0.2 69.28 M70.52 70.87 C55.27 69.78, 40.6 71.3, -0.59 69.17 M-0.03 68.69 C1.92 49.32, 1.88 25.02, 1.15 1.07 M-0.03 69.35 C0.14 48.88, -1.22 26.65, 0.43 0.85" stroke="#000000" stroke-width="1" fill="none"></path></g><g stroke-linecap="round" transform="translate(315 164.5) rotate(0 35 35)"><path d="M-0.54 -1.65 C26.41 -1.31, 52.43 -1.16, 70.32 -1.86 M-0.7 -0.02 C26.56 0.23, 54.14 -0.29, 69.71 -0.57 M68.19 1.26 C72.04 26.06, 70.01 53.61, 68.29 68.2 M69.01 0.08 C69.58 23.62, 70.54 45.4, 70.06 69.41 M68.08 70.86 C53.62 71.73, 33.64 70.73, -0.72 68.15 M70.87 69.78 C54.35 69.98, 40.81 69.77, -0.83 70.14 M-1.31 71.51 C1.01 54.53, -1.3 37.26, 1.07 0.15 M-0.65 70.74 C-0.13 42.37, -0.84 16.41, 0.85 0.71" stroke="#000000" stroke-width="1" fill="none"></path></g><g stroke-linecap="round" transform="translate(402 163.5) rotate(0 35 35)"><path d="M-1.65 0.91 C15.32 1.62, 32.15 0.51, 68.14 1.82 M-0.02 -0.82 C22.93 -0.14, 44.75 0.2, 69.43 0.87 M71.26 1.4 C68.88 26.81, 69.34 53.17, 68.2 70.61 M70.08 -0.72 C70.83 24.21, 69.48 47.99, 69.41 69.55 M70.86 71.48 C52.76 68.7, 33.32 68.6, -1.85 68.3 M69.78 69.41 C44.91 71.53, 20 69.78, 0.14 69.42 M1.51 71.3 C1.49 45.16, 1.16 23.42, 0.15 1.72 M0.74 70.39 C-0.6 43.43, 0.46 18.34, 0.71 0.89" stroke="#000000" stroke-width="1" fill="none"></path></g><g stroke-linecap="round" transform="translate(133 250.5) rotate(0 35 35)"><path d="M1.15 0.16 C21.65 0.87, 43.14 -1.99, 71.05 0.45 M-0.05 0.96 C13.65 -0.04, 27.55 -0.27, 69.53 0.87 M71.11 1.34 C70.58 26.7, 70.38 53.17, 68.94 70.48 M69.54 -0.83 C70.58 27.94, 69.66 54.86, 69.21 69.04 M68.39 68.26 C48.21 69.94, 22.12 68.83, -1.11 70.86 M69.86 70.84 C51.44 69.78, 33.14 69.02, 0.59 70.08 M0.85 70.01 C0.82 46.57, -0.5 20.43, 0.3 0.17 M-0.84 70.1 C-0.87 53.41, -0.54 35.83, 0.09 0.19" stroke="#000000" stroke-width="1" fill="none"></path></g><g stroke-linecap="round" transform="translate(221 250.5) rotate(0 35 35)"><path d="M0.16 -0.41 C18.33 -1.39, 32.62 0.64, 70.45 -1.94 M0.96 -0.58 C21.29 -0.87, 41.98 -0.43, 70.87 0.73 M71.34 1.03 C71.01 17.34, 71.34 31.97, 70.48 71.89 M69.17 0.34 C69.69 22.78, 69 45.91, 69.04 70.38 M68.26 71.88 C53.83 68.91, 36.18 68.33, 0.86 69.25 M70.84 69.81 C48.88 69.77, 26.86 70.49, 0.08 70.63 M0.01 71.01 C2.48 46.85, 1.75 24.64, 0.17 -1 M0.1 69.71 C1.43 43.23, 1.36 16.47, 0.19 0.79" stroke="#000000" stroke-width="1" fill="none"></path></g><g stroke-linecap="round" transform="translate(315 250.5) rotate(0 35 35)"><path d="M-0.41 1.18 C23.06 -1.74, 49.15 0.39, 68.06 -0.02 M-0.58 0.36 C24.05 -0.55, 49.44 0.19, 70.73 -0.64 M71.03 0.56 C71.21 26.36, 69.32 51.41, 71.89 70.67 M70.34 0.32 C69.1 14.34, 68.89 28.48, 70.38 69.36 M71.88 70.35 C52.54 68.62, 35.04 70.25, -0.75 70.07 M69.81 70.15 C52.53 69.97, 35.91 70.67, 0.63 70.26 M1.01 71.98 C-0.62 55.3, 0.01 38.27, -1 1.66 M-0.29 70.91 C0.63 54.99, 0.68 38.5, 0.79 0.45" stroke="#000000" stroke-width="1" fill="none"></path></g><g stroke-linecap="round" transform="translate(402 249.5) rotate(0 35 35)"><path d="M1.18 -0.99 C23.35 1.19, 50.52 -1.79, 69.98 1.13 M0.36 -0.91 C20.76 -0.06, 42.14 1.14, 69.36 0.64 M70.56 0.82 C71.37 23.81, 70.96 51.64, 70.67 68.21 M70.32 -0.57 C69.05 17, 68.46 35.96, 69.36 69.42 M70.35 69.47 C53.86 69.55, 40.11 69.91, 0.07 68.95 M70.15 69.87 C49.39 70.46, 30.09 70.5, 0.26 69.28 M1.98 69.68 C1.24 46.33, 0.16 21.05, 1.66 -1.47 M0.91 70.04 C0.77 54.99, 0.12 40.59, 0.45 -0.47" stroke="#000000" stroke-width="1" fill="none"></path></g><g stroke-linecap="round" transform="translate(136 337.5) rotate(0 35 35)"><path d="M-0.01 0.36 C24.9 -1.98, 45.54 0.87, 68.4 0.08 M0.36 0.55 C14.75 -0.54, 30.29 1.01, 70 -0.28 M71.49 -1.68 C71.07 16.6, 71.49 35.22, 71.26 70.59 M69.11 -0.36 C69.06 16.49, 70.24 32.27, 69.01 69.24 M71.78 69.99 C51.75 68.43, 33.83 68.07, 1.06 69.58 M70.84 70.29 C43.55 70.13, 16.17 71.11, -0.84 69.02 M0.83 70.1 C-2.03 42.73, 0.42 14.24, 0.12 -1.1 M0.51 70.68 C-0.15 47.45, -0.33 23.64, 0.07 -0.9" stroke="#000000" stroke-width="1" fill="none"></path></g><g stroke-linecap="round" transform="translate(224 337.5) rotate(0 35 35)"><path d="M0.36 1.51 C26.03 -1.22, 56.57 -1.6, 70.08 -1.59 M0.55 -0.68 C16.73 -0.82, 35.8 -0.25, 69.72 -0.41 M68.32 0.76 C68.49 25.27, 69.02 49.43, 70.59 68.59 M69.64 -0.95 C70.05 21.32, 69.75 41.2, 69.24 69.67 M69.99 70.45 C47.94 71.85, 26.63 71.69, -0.42 71.7 M70.29 70.49 C48.41 70.65, 27.93 69.74, -0.98 70.96 M0.1 68.47 C0.34 44.94, -0.42 18.18, -1.1 0.52 M0.68 69.8 C0.25 49.18, -0.73 29.2, -0.9 -0.54" stroke="#000000" stroke-width="1" fill="none"></path></g><g stroke-linecap="round" transform="translate(318 337.5) rotate(0 35 35)"><path d="M1.51 -1.65 C23.01 1.07, 46.87 -0.04, 68.41 -1 M-0.68 -0.79 C17.98 0.38, 37.1 -0.67, 69.59 0.44 M70.76 -1.49 C71.7 19.9, 71.78 42.34, 68.59 70.03 M69.05 0.42 C69.61 17.42, 68.39 33.83, 69.67 69.99 M70.45 68.89 C54.87 68.53, 38.35 69.58, 1.7 70.13 M70.49 69.88 C46.57 71.06, 22.18 69.22, 0.96 70.71 M-1.53 70.47 C0.62 47.39, -0.17 24.25, 0.52 -0.16 M-0.2 70.28 C-0.74 48, -0.29 26.49, -0.54 -0.56" stroke="#000000" stroke-width="1" fill="none"></path></g><g stroke-linecap="round" transform="translate(405 336.5) rotate(0 35 35)"><path d="M-1.65 -1.22 C22.14 -2.13, 41.98 -2.12, 69 -0.7 M-0.79 -0.57 C24.26 0.47, 46.71 0.06, 70.44 -0.02 M68.51 1.18 C68.44 27.45, 70 50.99, 70.03 68.94 M70.42 0.23 C69.87 13.81, 68.98 29.27, 69.99 69.34 M68.89 71.22 C41.29 71.22, 15.09 71.86, 0.13 70.71 M69.88 70.06 C44.01 69.5, 15.32 71.31, 0.71 70.19 M0.47 70.91 C-0.32 46.23, -1.14 22.73, -0.16 0.09 M0.28 69.62 C-1.18 45.47, -1.38 20.27, -0.56 -0.69" stroke="#000000" stroke-width="1" fill="none"></path></g><g stroke-linecap="round" transform="translate(123.5 59) rotate(0 89.5 183.5)"><path d="M0.45 0.7 C57.37 0.05, 118.34 -1.1, 178.53 -1.34 M178.68 0.36 C180.36 88.79, 178.34 175.47, 179.17 367.75 M177.3 365.13 C126.29 369.07, 78.93 366.39, 0.1 368.85 M-0.52 366.2 C-1.54 281.15, -1.28 195.32, -0.16 0.11" stroke="#009ee3" stroke-width="2.5" fill="none" stroke-dasharray="8 10"></path></g><g transform="translate(127.5 10) rotate(0 89.5 12.5)"><text x="0" y="18" font-family="Virgil, Segoe UI Emoji" font-size="20px" fill="#009ee3" text-anchor="start" style="white-space: pre;" direction="ltr">Spalten auswählen</text></g><g stroke-opacity="0.2" fill-opacity="0.2" stroke-linecap="round" transform="translate(216.5 146.9999999999999) rotate(89.99999999999994 88 183.5)"><path d="M-0.27 -0.42 L176.35 -0.29 L176.76 365.88 L0.35 368.25" stroke="none" stroke-width="0" fill="#009ee3"></path><path d="M0.24 -1.59 C58.68 -1.35, 117.91 0.13, 174.54 1.48 M0.71 0.67 C66.54 -0.31, 132.71 -0.95, 176.15 -0.79 M175 -0.62 C178.19 85.47, 177.88 170.41, 176.7 367.13 M176 0.61 C177.83 137.8, 177.98 275.02, 176.18 367.11 M177.37 366.9 C107.61 369.41, 39.26 366.24, -1.81 367.16 M176.85 366.18 C124.72 366.15, 71.81 365.8, 0.74 367.05 M-1.17 365.91 C-0.5 241.97, -0.92 117.2, -1.16 0.93 M-0.18 367 C0.13 234.3, -0.34 102.16, -0.26 -0.02" stroke="transparent" stroke-width="2" fill="none"></path></g><g transform="translate(339 433.5) rotate(0 63 12.5)"><text x="0" y="18" font-family="Virgil, Segoe UI Emoji" font-size="20px" fill="#009ee3" text-anchor="start" style="white-space: pre;" direction="ltr">Zeilen filtern</text></g><g stroke-opacity="0.6" fill-opacity="0.6" stroke-linecap="round" transform="translate(518.5 79.75) rotate(0 35 35)"><path d="M0.67 1.97 L71.75 -1.12 L70.64 69.18 L-1.16 68.25" stroke="none" stroke-width="0" fill="#009ee3"></path><path d="M-0.12 -0.69 C26.87 1.04, 54.92 1.75, 69.08 -0.27 M70.63 -0.04 C71.12 14.69, 70.06 32.87, 71.71 71.56 M69.87 70.22 C46.29 71.04, 17.66 69.11, 0.91 71.29 M-0.54 69.7 C-1.02 44.62, -1.43 17.68, -0.49 1.63" stroke="#000000" stroke-width="1.5" fill="none" stroke-dasharray="8 9"></path></g><g transform="translate(546 99.75) rotate(0 6.5 12.5)"><text x="6.5" y="18" font-family="Virgil, Segoe UI Emoji" font-size="20px" fill="#000000" text-anchor="middle" style="white-space: pre;" direction="ltr">E</text></g><g stroke-linecap="round" transform="translate(518 165.25) rotate(0 35 35)"><path d="M-0.92 0.35 C13.44 1.3, 27.28 -0.03, 68.5 0.16 M71.07 -1.06 C70.22 27.87, 71.93 54.6, 71.24 71.34 M71.62 71.23 C49.16 69.37, 32.58 71.37, 1.43 71.26 M-0.58 70.62 C-0.8 45.24, -0.3 22.75, 0.67 1.97" stroke="#000000" stroke-width="1.5" fill="none" stroke-dasharray="8 9"></path></g><g stroke-linecap="round" transform="translate(518 251.25) rotate(0 35 35)"><path d="M0.35 -0.66 C21.65 -0.6, 40.92 -1.18, 70.16 1.58 M68.94 0 C71.34 24.93, 71.54 47.68, 71.34 69.48 M71.23 68.33 C48.76 71.48, 30.22 71.99, 1.26 70.98 M0.62 69.01 C-0.21 50.4, 1.74 32.44, 1.97 1.75" stroke="#000000" stroke-width="1.5" fill="none" stroke-dasharray="8 9"></path></g><g stroke-linecap="round" transform="translate(521 338.25) rotate(0 35 35)"><path d="M-0.66 1.06 C17.67 -0.39, 35.68 0.03, 71.58 0.63 M70 1.35 C72.08 22.42, 71.61 43.06, 69.48 69.87 M68.33 69.29 C49.15 71.72, 27.9 71.69, 0.98 69.46 M-0.99 69.68 C-0.29 51.7, 0.87 32.11, 1.75 -1.12" stroke="#000000" stroke-width="1.5" fill="none" stroke-dasharray="8 9"></path></g><g transform="translate(490.5 10.5) rotate(0 69 25)"><text x="69" y="18" font-family="Virgil, Segoe UI Emoji" font-size="20px" fill="#009ee3" text-anchor="middle" style="white-space: pre;" direction="ltr">Neue Spalten </text><text x="69" y="43" font-family="Virgil, Segoe UI Emoji" font-size="20px" fill="#009ee3" text-anchor="middle" style="white-space: pre;" direction="ltr">hinzufügen</text></g><g stroke-linecap="round"><g stroke-opacity="0.2" fill-opacity="0.2" transform="translate(100.5 325) rotate(0 -25.692358784750127 0.7491013277322054)"><path d="M-0.55 -0.43 C-9.12 -0.04, -42.52 1.75, -50.84 1.92" stroke="transparent" stroke-width="2.5" fill="none" stroke-dasharray="8 10"></path></g><g stroke-opacity="0.2" fill-opacity="0.2" transform="translate(100.5 325) rotate(0 -25.692358784750127 0.7491013277322054)"><path d="M-27.95 -7.47 C-33.94 -3.53, -44.28 0.74, -50.6 1.78" stroke="transparent" stroke-width="2.5" fill="none"></path></g><g stroke-opacity="0.2" fill-opacity="0.2" transform="translate(100.5 325) rotate(0 -25.692358784750127 0.7491013277322054)"><path d="M-27.25 9.96 C-33.43 7.84, -44.01 6.03, -50.6 1.78" stroke="transparent" stroke-width="2.5" fill="none"></path></g></g><g stroke-linecap="round"><g transform="translate(48.5 92) rotate(0 -0.19765122637153354 140.29765182003376)"><path d="M-0.91 0.59 C-1.05 47.3, -0.19 232.7, -0.17 279.13 M0.81 -0.14 C0.45 46.88, -1.35 233.95, -1.2 280.74" stroke="#009ee3" stroke-width="2" fill="none"></path></g><g transform="translate(48.5 92) rotate(0 -0.19765122637153354 140.29765182003376)"><path d="M-10.36 252.22 C-7.81 261.26, -4.17 271.3, 0.31 279.4 M-11.68 253.2 C-7.72 261.86, -3.19 272.33, -1.48 280.49" stroke="#009ee3" stroke-width="2" fill="none"></path></g><g transform="translate(48.5 92) rotate(0 -0.19765122637153354 140.29765182003376)"><path d="M10.16 252.31 C5.46 261.15, 1.86 271.17, 0.31 279.4 M8.84 253.29 C5.48 261.95, 2.68 272.4, -1.48 280.49" stroke="#009ee3" stroke-width="2" fill="none"></path></g></g><g stroke-linecap="round"><g transform="translate(76.5 111.5) rotate(180 -0.6163633483609487 139.57954690083864)"><path d="M0.01 0.02 C0.07 46.65, 0.31 232.3, 0.17 278.77 M-1.44 -1.02 C-1.51 45.89, -1.19 233.35, -0.68 280.18" stroke="#009ee3" stroke-width="2" fill="none"></path></g><g transform="translate(76.5 111.5) rotate(180 -0.6163633483609487 139.57954690083864)"><path d="M-11.08 252.34 C-8.78 258.65, -5.78 267.84, 0.69 281.47 M-11.24 252.2 C-6.9 262.97, -2.16 272.74, -0.82 279.73" stroke="#009ee3" stroke-width="2" fill="none"></path></g><g transform="translate(76.5 111.5) rotate(180 -0.6163633483609487 139.57954690083864)"><path d="M9.45 252.22 C5.91 258.57, 3.07 267.79, 0.69 281.47 M9.28 252.09 C5.74 262.92, 2.58 272.73, -0.82 279.73" stroke="#009ee3" stroke-width="2" fill="none"></path></g></g><g transform="translate(-54 213.5) rotate(270 76.5 12.5)"><text x="0" y="18" font-family="Virgil, Segoe UI Emoji" font-size="20px" fill="#009ee3" text-anchor="start" style="white-space: pre;" direction="ltr">Zeilen sortieren</text></g><g transform="translate(663.5 212.66129032258084) rotate(0 -22.766129032258164 20.16935483870958)" stroke="none" fill="#009ee3"><path d="M -11.85,2.62 Q -11.85,2.62 -12.99,2.64 -14.13,2.66 -15.28,2.74 -16.44,2.81 -17.57,2.87 -18.70,2.92 -20.06,2.97 -21.43,3.02 -23.69,3.01 -25.94,2.99 -27.32,3.03 -28.70,3.08 -29.84,3.11 -30.99,3.15 -32.35,3.20 -33.71,3.25 -32.70,2.63 -31.70,2.01 -31.75,0.90 -31.81,-0.19 -30.95,0.64 -30.09,1.49 -28.88,2.29 -27.68,3.09 -26.15,4.26 -24.62,5.42 -23.75,6.22 -22.89,7.02 -22.08,7.91 -21.28,8.81 -19.82,10.01 -18.37,11.21 -17.05,12.71 -15.74,14.21 -14.52,15.15 -13.30,16.09 -13.29,18.06 -13.27,20.02 -13.99,21.20 -14.70,22.39 -15.82,23.21 -16.93,24.04 -17.79,25.27 -18.64,26.49 -19.56,27.35 -20.48,28.20 -21.15,29.14 -21.81,30.08 -22.47,31.41 -23.13,32.75 -24.12,34.05 -25.11,35.36 -25.87,36.22 -26.63,37.07 -27.72,37.88 -28.81,38.69 -29.59,39.68 -30.37,40.67 -31.11,39.08 -31.85,37.48 -30.51,37.11 -29.17,36.74 -27.28,36.79 -25.38,36.85 -23.52,36.89 -21.66,36.92 -20.33,36.90 -19.01,36.87 -17.68,36.85 -16.36,36.83 -15.04,36.81 -13.72,36.80 -13.92,36.69 -14.13,36.58 -14.03,36.01 -13.93,35.43 -13.65,34.92 -13.37,34.41 -12.95,34.01 -12.52,33.62 -11.99,33.38 -11.45,33.14 -10.87,33.08 -10.29,33.03 -9.73,33.16 -9.16,33.29 -8.66,33.60 -8.17,33.90 -7.79,34.35 -7.42,34.80 -7.21,35.34 -7.00,35.89 -6.98,36.47 -6.95,37.05 -7.11,37.61 -7.28,38.17 -7.61,38.65 -7.94,39.13 -8.41,39.48 -8.88,39.82 -9.43,40.00 -9.99,40.18 -10.57,40.18 -11.15,40.17 -11.70,39.98 -12.25,39.79 -12.71,39.43 -13.17,39.07 -13.50,38.58 -13.82,38.10 -13.97,37.53 -14.12,36.97 -14.08,36.39 -14.04,35.81 -13.82,35.27 -13.60,34.73 -13.21,34.29 -12.83,33.85 -12.33,33.55 -11.83,33.26 -11.25,33.14 -10.68,33.02 -10.10,33.09 -9.53,33.16 -9.00,33.41 -8.47,33.66 -8.05,34.07 -7.64,34.47 -7.37,34.99 -7.10,35.51 -7.01,36.09 -6.93,36.66 -6.93,36.66 -6.93,36.66 -7.36,39.32 -7.79,41.98 -8.82,42.65 -9.85,43.33 -11.79,43.60 -13.72,43.87 -15.04,43.85 -16.36,43.84 -17.68,43.82 -19.01,43.80 -20.34,43.77 -21.66,43.75 -23.53,43.78 -25.40,43.81 -27.35,43.86 -29.30,43.90 -30.89,43.88 -32.48,43.86 -34.12,43.32 -35.76,42.77 -36.39,41.53 -37.02,40.29 -36.99,39.15 -36.96,38.01 -36.02,36.34 -35.07,34.67 -34.22,33.87 -33.36,33.06 -32.34,32.28 -31.33,31.50 -30.74,30.60 -30.14,29.71 -29.20,29.07 -28.26,28.43 -27.22,26.38 -26.18,24.32 -25.29,23.64 -24.41,22.95 -23.77,21.89 -23.13,20.83 -22.25,19.69 -21.36,18.56 -19.98,18.01 -18.60,17.46 -18.19,19.11 -17.78,20.77 -18.79,20.13 -19.79,19.49 -20.77,18.49 -21.75,17.49 -22.60,16.68 -23.45,15.87 -24.82,14.77 -26.20,13.67 -27.66,11.88 -29.13,10.10 -30.22,9.59 -31.31,9.08 -32.24,8.55 -33.17,8.03 -34.12,7.04 -35.06,6.05 -35.82,5.26 -36.58,4.48 -37.16,3.34 -37.74,2.20 -37.78,0.85 -37.83,-0.49 -37.08,-1.26 -36.32,-2.02 -35.02,-2.64 -33.71,-3.25 -32.35,-3.20 -30.99,-3.15 -29.84,-3.11 -28.70,-3.08 -27.32,-3.03 -25.94,-2.99 -23.69,-3.01 -21.43,-3.02 -20.06,-2.97 -18.70,-2.92 -17.57,-2.87 -16.44,-2.81 -15.28,-2.74 -14.13,-2.66 -12.99,-2.64 -11.85,-2.62 -11.54,-2.58 -11.22,-2.55 -10.92,-2.43 -10.63,-2.32 -10.37,-2.14 -10.11,-1.96 -9.90,-1.72 -9.69,-1.49 -9.54,-1.21 -9.39,-0.93 -9.32,-0.62 -9.24,-0.31 -9.24,0.00 -9.24,0.31 -9.32,0.62 -9.39,0.93 -9.54,1.21 -9.69,1.49 -9.90,1.72 -10.11,1.96 -10.37,2.14 -10.63,2.32 -10.93,2.43 -11.22,2.55 -11.54,2.58 -11.85,2.62 -11.85,2.62 L -11.85,2.62 Z"></path></g><g transform="translate(650.3225806451619 212) rotate(0 1.6532258064515872 3.9677419354838435)" stroke="none" fill="#009ee3"><path d="M 2.25,-1.12 Q 2.25,-1.12 2.83,0.00 3.41,1.13 4.67,4.34 5.93,7.56 5.89,7.98 5.84,8.41 5.67,8.80 5.49,9.19 5.19,9.50 4.90,9.81 4.52,10.02 4.15,10.22 3.72,10.29 3.30,10.36 2.88,10.29 2.45,10.23 2.07,10.03 1.69,9.83 1.40,9.52 1.10,9.21 0.92,8.82 0.74,8.43 0.69,8.00 0.64,7.58 0.73,7.16 0.82,6.74 1.04,6.37 1.26,6.00 1.59,5.73 1.91,5.45 2.31,5.29 2.71,5.13 3.14,5.10 3.56,5.08 3.98,5.19 4.39,5.30 4.75,5.54 5.10,5.78 5.36,6.12 5.62,6.46 5.76,6.87 5.90,7.27 5.90,7.70 5.91,8.13 5.77,8.54 5.63,8.94 5.38,9.29 5.12,9.63 4.76,9.87 4.41,10.11 4.00,10.23 3.59,10.34 3.16,10.32 2.73,10.30 2.33,10.14 1.93,9.99 1.60,9.71 1.28,9.44 1.05,9.07 0.83,8.70 0.74,8.28 0.64,7.87 0.64,7.87 0.64,7.87 0.45,6.70 0.25,5.53 -0.43,4.47 -1.13,3.42 -1.69,2.27 -2.25,1.12 -2.35,0.84 -2.45,0.55 -2.48,0.25 -2.51,-0.04 -2.47,-0.35 -2.43,-0.65 -2.32,-0.93 -2.20,-1.21 -2.02,-1.46 -1.85,-1.70 -1.62,-1.90 -1.38,-2.10 -1.11,-2.23 -0.84,-2.37 -0.55,-2.43 -0.25,-2.50 0.04,-2.50 0.35,-2.49 0.64,-2.41 0.93,-2.33 1.20,-2.19 1.47,-2.04 1.69,-1.83 1.91,-1.63 2.08,-1.37 2.25,-1.12 2.25,-1.12 L 2.25,-1.12 Z"></path></g><g transform="translate(680.5 209) rotate(0 117 25)"><text x="0" y="18" font-family="Virgil, Segoe UI Emoji" font-size="20px" fill="#009ee3" text-anchor="start" style="white-space: pre;" direction="ltr">Zeilen zusammenfassen </text><text x="0" y="43" font-family="Virgil, Segoe UI Emoji" font-size="20px" fill="#009ee3" text-anchor="start" style="white-space: pre;" direction="ltr">(aggregieren)</text></g><g stroke-linecap="round" transform="translate(112.5 158) rotate(0 245 85.5)"><path d="M0 0 C171.16 0, 342.33 0, 490 0 M0 0 C157.35 0, 314.7 0, 490 0 M490 0 C490 63.4, 490 126.81, 490 171 M490 0 C490 39.99, 490 79.97, 490 171 M490 171 C357.04 171, 224.09 171, 0 171 M490 171 C294.59 171, 99.18 171, 0 171 M0 171 C0 109.14, 0 47.27, 0 0 M0 171 C0 119.15, 0 67.3, 0 0" stroke="#009ee3" stroke-width="4" fill="none"></path></g></svg>